<?xml version="1.0" standalone="no"?><!DOCTYPE svg PUBLIC "-//W3C//DTD SVG 1.1//EN" "http://www.w3.org/Graphics/SVG/1.1/DTD/svg11.dtd"><svg t="1611898283499" class="icon" viewBox="0 0 1024 1024" version="1.1" xmlns="http://www.w3.org/2000/svg" p-id="6086" xmlns:xlink="http://www.w3.org/1999/xlink" width="128" height="128"><defs><style type="text/css"></style></defs><path d="M0 0h1024v1024H0z" fill="#FFFFFF" p-id="6087"></path><path d="M160 80c-44.112 0-80 35.888-80 80v704c0 44.112 35.888 80 80 80h704c44.112 0 80-35.888 80-80V160c0-44.112-35.888-80-80-80H160m0-80h704c88.366 0 160 71.634 160 160v704c0 88.366-71.634 160-160 160H160c-88.366 0-160-71.634-160-160V160C0 71.634 71.634 0 160 0z" fill="#707070" p-id="6088"></path><path d="M316 472h392a12 12 0 0 1 12 12v56a12 12 0 0 1-12 12H316a12 12 0 0 1-12-12v-56a12 12 0 0 1 12-12z" fill="#707070" p-id="6089"></path></svg>