<?xml version="1.0" standalone="no"?><!DOCTYPE svg PUBLIC "-//W3C//DTD SVG 1.1//EN" "http://www.w3.org/Graphics/SVG/1.1/DTD/svg11.dtd"><svg t="1611067361640" class="icon" viewBox="0 0 1024 1024" version="1.1" xmlns="http://www.w3.org/2000/svg" p-id="2745" xmlns:xlink="http://www.w3.org/1999/xlink" width="200" height="200"><defs><style type="text/css"></style></defs><path d="M316.309333 175.424a42.666667 42.666667 0 1 1 39.189334 75.818667A341.248 341.248 0 0 0 170.666667 554.666667c0 188.522667 152.810667 341.333333 341.333333 341.333333s341.333333-152.810667 341.333333-341.333333a341.248 341.248 0 0 0-184.832-303.424 42.666667 42.666667 0 1 1 39.189334-75.818667A426.581333 426.581333 0 0 1 938.666667 554.666667c0 235.648-191.018667 426.666667-426.666667 426.666666S85.333333 790.314667 85.333333 554.666667c0-161.28 90.282667-306.496 230.976-379.242667zM469.333333 85.333333a42.666667 42.666667 0 1 1 85.333334 0v426.666667a42.666667 42.666667 0 1 1-85.333334 0V85.333333z" p-id="2746"></path></svg>