<?xml version="1.0" standalone="no"?><!DOCTYPE svg PUBLIC "-//W3C//DTD SVG 1.1//EN" "http://www.w3.org/Graphics/SVG/1.1/DTD/svg11.dtd"><svg t="1611034463219" class="icon" viewBox="0 0 1024 1024" version="1.1" xmlns="http://www.w3.org/2000/svg" p-id="10499" xmlns:xlink="http://www.w3.org/1999/xlink" width="200" height="200"><defs><style type="text/css"></style></defs><path d="M433.916 510.117c0 42.923 34.795 77.714 77.716 77.714 42.923 0 77.716-34.792 77.716-77.714s-77.716-194.292-77.716-194.292-77.716 151.369-77.716 194.292z m116.575 0c0 21.461-17.395 38.858-38.858 38.858-21.459 0-38.858-17.397-38.858-38.858s17.399-38.858 38.858-38.858c21.463 0 38.858 17.396 38.858 38.858z m277.135-315.973l-0.01-0.011-0.011-0.01C746.74 113.262 635.027 63.249 511.633 63.249c-123.395 0-235.108 50.014-315.974 130.877l-0.008 0.007-0.007 0.008C114.781 275.007 64.768 386.72 64.767 510.114v0.002c0 123.39 50.01 235.099 130.865 315.964l0.018 0.02 0.02 0.018c80.865 80.855 192.573 130.863 315.962 130.863 123.388 0 235.096-50.008 315.961-130.861 0.007-0.007 0.016-0.013 0.023-0.021s0.013-0.016 0.021-0.023C908.492 745.213 958.5 633.505 958.5 510.117v-0.002c-0.001-123.394-50.013-235.106-130.874-315.971z m-14.08 590.408l-27.144-27.144c-7.587-7.589-19.889-7.589-27.477 0-7.589 7.587-7.589 19.888 0 27.477l27.143 27.146c-68.002 61.848-156.979 101.039-255.007 105.635v-38.398c0-10.729-8.698-19.427-19.429-19.427-10.729 0-19.429 8.698-19.429 19.427v38.398c-98.027-4.596-187.005-43.787-255.006-105.635l27.145-27.146c7.587-7.589 7.587-19.889 0-27.477-7.587-7.589-19.889-7.589-27.477 0l-27.145 27.145c-61.85-68.002-101.042-156.98-105.638-255.009h38.399c10.731 0 19.429-8.696 19.429-19.429 0-10.729-8.698-19.427-19.429-19.427h-38.399c4.596-98.028 43.788-187.006 105.638-255.008l27.145 27.146c7.587 7.585 19.889 7.585 27.477 0 7.587-7.589 7.587-19.889 0-27.478l-27.144-27.144c68.002-61.848 156.979-101.039 255.006-105.635v38.397c0 10.729 8.7 19.427 19.429 19.427 10.731 0 19.429-8.698 19.429-19.427v-38.397c98.027 4.596 187.005 43.787 255.006 105.635l-27.143 27.144c-7.589 7.589-7.589 19.889 0 27.478 7.587 7.585 19.889 7.585 27.477 0l27.144-27.145c61.85 68.001 101.041 156.979 105.637 255.007h-38.399c-10.729 0-19.429 8.698-19.429 19.427 0 10.733 8.7 19.429 19.429 19.429h38.399c-4.596 98.028-43.787 187.006-105.637 255.008z" p-id="10500"></path></svg>